<svg version="1.1" preserveAspectRatio="none" xmlns="http://www.w3.org/2000/svg" width="500" height="500" viewBox="0 0 500 500"><rect width="100%" height="100%" fill="#F7F7F7" fill-opacity="1"/><svg viewBox="693.0243 455.712 347.9244 242.2691" width="333" height="231.87683962378034" x="83.5px" y="134.0616px" xmlns="http://www.w3.org/2000/svg" xmlns:xlink="http://www.w3.org/1999/xlink" preserveAspectRatio="none"><defs></defs><style>.companyName {fill:#2B2B2B;fill-opacity:1;}.icon1 {fill:#2B2B2B;fill-opacity:1;}.icon2 {fill:#59C65B;fill-opacity:1;}.icon3 {fill:#6D6D6D;fill-opacity:1;}.icon3-str {stroke:#6D6D6D;stroke-opacity:1;}</style><g opacity="1" transform="rotate(0 797.4016 455.712)">
<svg width="139.1698" height="142.2691" x="797.4016" y="455.712" version="1.1" preserveAspectRatio="none" viewBox="5.100000858306885 6.2803850173950195 88.31248474121094 90.27925109863281">
  <g transform="matrix(1 0 0 1 0 0)" class="icon1"><path d="M48.4,8.4c0.4,1.4,0.5,2.8,0.7,4.2C48.9,11.2,48.7,9.8,48.4,8.4c-0.1,0.1-0.1,0.2-0.2,0.3c0,0-0.1,0-0.1,0  c0.1-0.1,0.2-0.3,0.2-0.4c0-0.1,0-0.2,0.1-0.2c0.4-0.2,0.8,0,1.1,0.2c0.1-0.1,0.1-0.2,0.2-0.3c0.2-0.3,0.3-0.6,0.6-0.9  c0-0.1,0.1-0.1,0.2-0.1c0.6,0,0.9,0.4,1.3,0.7c0-0.5,0.5-1,1-1.2c0.1,0,0.1,0,0.1,0.1c-0.3,0.4-0.7,0.8-0.8,1.3  C52.3,8,52,8.3,51.7,8.1c-0.3-0.3-0.7-0.7-1.1-0.7c-0.1,0-0.1,0-0.1-0.1c-0.1,0.2-0.2,0.4-0.2,0.7c0,0.3,0,0.4-0.1,0.6  c-0.1,0.1-0.2,0.2-0.4,0.2c-0.1,0-0.1,0-0.2,0c-0.1-0.1-0.6-0.4-0.8-0.3C48.7,8.5,48.6,8.4,48.4,8.4C48.5,8.3,48.5,8.4,48.4,8.4z   M93,51.4c0,0.1,0,0.1,0,0.2c0,0,0.1,0.1,0.1,0.1c0.2,0.8-0.7,1.4-1.4,1.8c0,0.1,0,0.1,0,0.2c0,0.3,0.3,0.8,0.3,1.1c0,0,0,0,0,0  c0,0,0,0,0,0c0,0,0,0,0,0c0,0,0,0,0,0c0,0-0.1,0.1-0.1,0.1c0,0,0,0,0,0c-0.3,0.6-0.8,1-1.5,1c0.2,0.5,0.3,1.1,0,1.5  c0,0.1-0.1,0-0.1,0c-0.3,0.4-0.7,0.6-1.1,0.7c-0.3,0.2-0.5,0.4-0.8,0.4c0,0.3,0.2,0.6,0.2,0.9c0,0.5-0.4,0.9-0.9,1  c-0.6,0.3-1.3,0.5-1.9,0.3c0.1,0.4,0.1,0.9,0.1,1.3c0,0,0,0,0,0c0,0,0,0,0,0c0,0,0,0.1,0,0.1c-0.1,0.1-0.3,0.1-0.5,0.1  c-0.3,0.1-0.7,0.1-1.1,0.1c0.1,0.5,0.2,1-0.1,1.3c0.1,0.1,0,0.2,0,0.3c-0.3,0.5-1.4,0.8-2,1c-0.4,0.1-0.8,0.1-1.2,0.1  c0,0-0.1,0-0.1,0c0.3,0.7,0.5,1.4,0.5,2.2c0,0.1-0.1,0.2-0.2,0.2c0,0-0.1,0-0.1,0c0,0,0,0,0,0c-1.3,0.4-3.1,0.7-4.3,0  c0.1,0.3,0.1,0.6,0.2,0.8c0.1,0.2,0.1,0.5,0.2,0.7c0,0.1,0.4,0.4,0.4,0.5c0,0.1,0,0.1,0,0.2c0,0.1-0.1,0.1-0.1,0.2  c-0.1,0-0.3,0-0.4,0c0,0,0,0,0,0c-0.1,0-0.1,0-0.2,0c0,0,0,0,0,0c-0.8,0-1.8-0.1-2.6-0.2c-0.4-0.1-0.8-0.2-1.2-0.5  c0.1,0.5,0.1,1,0.5,1.5c0,0.1,0,0.2-0.1,0.2C73,71,72.7,71,72.5,71c-0.2,0.1-0.3,0-0.6,0C71.4,70.9,71,71,70.5,71  c-0.5,0-1.4,0-1.9-0.4c0,0.3,0,0.5-0.1,0.8c0,0,0,0.1-0.1,0.1c0,0,0,0-0.1,0c0,0.1-0.1,0.2-0.2,0.2c-0.4,0-0.7-0.1-1.1-0.1  c-0.3,0-0.7,0-1-0.1c-0.3-0.1-0.7-0.4-1-0.6c0,0.2,0,0.4,0,0.6c0,0,0,0,0,0c0.2,0.1,0,0.4-0.2,0.4c-0.8,0.1-1.6-0.3-2.3-0.7  c-0.4-0.3-0.9-0.8-1.2-1.4c0,0.1,0,0.3-0.1,0.4c0,0.1-0.1,0.1-0.2,0.2c-0.1,0.1-0.3,0.2-0.4,0.1c-0.1-0.1-0.1-0.1-0.2-0.2  c-0.4-0.2-0.7-0.5-1.1-0.8c-0.3-0.2-0.7-0.4-0.9-0.8c-0.5-0.6-0.9-1.4-1.4-2.1c-0.5-0.7-0.8-1.3-1.1-2c-0.2-0.4-0.5-0.8-0.7-1.2  c-0.7-0.9-1.5-1.7-2.5-2.5c0,0-0.1,0.1-0.1,0.1c-0.7,0.6-1.2,1.3-1.5,2.1c0.4,5.7,0.7,11.3,3.1,16.8c1.7,4,5.3,11.3,3.5,15.8  c-0.3,0.6-1.2,1.3-1.7,0.5c-0.7-0.9-0.6-1.7-0.3-2.8c0.1-0.3,0.2-0.4,0.4-0.5c-0.1-2.8-1.5-6.6-2.1-8.4c-1.1-3-2.3-5.7-3-8.8  c-1.1-4.4-1.4-8.5-1.2-12.8c0,0-0.1-0.1-0.1-0.1c-0.2-0.3-0.4-0.6-0.7-0.9c-0.7,0.2-1.1,0.6-1.6,1.3c-0.4,0.5-0.8,1.1-1.4,1.5  c-1.7,1.9-3.6,3.6-5.6,4.6c0,0-0.1,0-0.1,0c0-0.1-0.1-0.2-0.1-0.2c-0.1,0-0.3,0-0.4-0.1c-0.9,1.2-2.9,1.8-4.2,2.2  c-0.5,0.1-1.2,0.2-1.6,0c0,0-0.1,0-0.1,0c-0.1-0.1-0.3-0.2-0.4-0.4c-0.1-0.1-0.1-0.1-0.1-0.2c-1.4,0.9-3.8,1.6-5,0.9  c0,0,0-0.1,0-0.1c0,0,0,0,0,0c0,0,0,0,0,0c0,0-0.1,0.1-0.1,0c-0.1-0.1-0.1-0.1-0.1-0.2c-0.1-0.1-0.2-0.1-0.2-0.3  c0-0.1-0.1-0.1-0.1-0.2c-0.1-0.1-0.2-0.2-0.4-0.4c0,0-0.1-0.1-0.1-0.1c0,0,0,0-0.1-0.1c-0.7,0.3-2.2-0.2-2.7-0.5  c-0.5-0.3-0.5-0.7-0.5-1.1c0-0.1-0.1-0.2-0.1-0.3c0,0,0,0,0,0c-0.8,0.3-2-0.6-2.5-1.1c-0.3-0.3-0.7-0.7-0.7-1.2c0-0.2,0-0.4,0.1-0.6  c0-0.1,0-0.1,0-0.2c0-0.3-0.1-0.5-0.1-0.8c-1.1,0.3-2.9-0.5-3.6-1.1c-0.2-0.1-0.3-0.3-0.4-0.4c0,0,0,0,0,0c-0.1,0-0.1-0.1,0-0.1  c-0.1-0.2-0.1-0.4,0-0.6c-0.1-0.5-0.1-1.1,0.1-1.6c-1.3,0.1-2.9-0.5-3.8-1.4c-0.4-0.4-0.5-0.7-0.5-1c-0.1-0.4,0-0.7,0-1.1  c0.1-0.3,0.1-1,0.3-1.4c-1.2-0.2-2.6-1.2-3.4-2.1C9,53,9,52.5,9.2,52.1c0-0.1,0.1-0.2,0.1-0.4c0.1-0.3,0.2-0.6,0.3-0.9  c-1.1-0.3-2.9-0.9-2.4-2.1c-0.1-0.3,0-0.7,0.2-1c0,0,0,0-0.1-0.1c-0.4-0.3-0.9-0.4-1.1-0.8C6,46.7,6,46.5,5.9,46.4  c0,0-0.1,0-0.1-0.1c0-0.4,0-0.5,0.3-0.8c0.1-0.2,0.3-0.4,0.4-0.6c-0.6-0.3-1.1-0.8-1.3-1.4c0-0.1,0-0.2,0-0.3c0-0.2-0.1-0.3-0.1-0.5  c0-0.1,0.1-0.3,0.1-0.4c0.1-0.3,0.3-0.6,0.4-0.9c0.1-0.1,0.2-0.2,0.3-0.3C5.9,41,5.9,41,5.8,40.9c-0.2-0.4-0.3-0.7-0.2-1.1  c0-0.2,0.2-0.4,0.3-0.7c-0.1-0.2,0-0.4,0.2-0.5c0,0,0,0,0-0.1c0.1-0.2,0-0.4,0.1-0.5c0.3-0.4,0.5-0.5,1-0.5c0,0,0,0,0,0  c-0.3,0.1-0.7,0.5-0.9,1c1.9-0.3,4.8,2,6.3,2.8c2,1.1,4.1,2.1,6.2,3.1c-0.1-0.1-0.1-0.2-0.2-0.3c-1.2-1-2.2-2.2-3.2-3.3  c-0.9-1-1.8-2-2.5-3.2c-0.6-1-1-2.3-2.1-2.9c-0.2,0.4-0.3,0.8-0.5,1.2c-0.1,0.1-0.1,0.3-0.3,0.4c0,0,0,0,0,0  c-0.1,0.2-0.3,0.4-0.6,0.3c-0.4,0-0.8-0.1-1.2-0.2c-0.4-0.1-0.7,0-1.1,0.1c0.1,0.3,0.2,0.5,0.3,0.8c0,0.1-0.1,0.1-0.1,0.1  C7.1,37.3,7,37,7,36.6c0,0,0,0-0.1,0c-0.2,0-0.2-0.2-0.1-0.3c0.4-0.3,0.9-0.4,1.3-0.6c0.6-0.3,1-0.4,1.6-0.4c0.3,0,0.4,0.2,0.5,0.4  c0.1-0.2,0.1-0.5,0.1-0.6c0.1-0.3,0.2-0.5,0.3-0.8c-0.1,0,0-0.2,0.1-0.2c0,0,0.1,0,0.1,0c0,0,0,0,0,0c0.1,0,0.2-0.1,0.4-0.1  c0.6-0.2,1.2-0.4,1.8-0.4c0.7,0,1.4,0.2,1.9,0.6c0,0,0,0,0,0c0.1-0.8,0.4-1.8,1.2-1.8c1-0.3,3.3-0.2,3.8,0.7c0.2-0.5,0.6-1,1-1.3  c0,0,0.1,0,0.2,0c0.1,0.1,0.2,0.1,0.3,0.2c1.1,0,2.5,0.4,3,1.3c0.4-0.5,0.9-0.9,1.5-0.7c0.3,0.1,0.7,0.2,1,0.5  c0.2,0.1,0.5,0.2,0.7,0.3c0.5,0.3,1.3,0.7,1.5,1.3c0.4-0.4,1-0.7,1.5-0.5c0.5,0.2,1.1,0.8,1.4,1.3c0.2,0.1,0.4,0.3,0.5,0.5  c0.2,0.2,0.4,0.5,0.5,0.7c0.2,0.2,0.3,0.4,0.4,0.7c0.6-0.3,1.1-0.3,1.7,0.3c0,0,0,0,0.1,0.1c0.4,0.3,0.7,0.7,1,1.1  c0.4,0.6,0.9,1.1,1.2,1.8c0.1,0.2,0.1,0.3,0.1,0.5c1.2-0.1,1.5,2.2,1.8,3.3c0.7,2.3,1.6,4.7,2.9,6.8c1.5,1.6,3,3.1,4.6,4.5  c1.2,1,2.9,2,3,3.7c0,0,0,0.1,0,0.1c0,0,0.1,0.1,0.1,0.1c0-0.8-0.1-1.5-0.1-2.3c-2.8-2.9-4.3-6.3-6.4-9.8c-1.2-2-2.5-4.4-4.2-6.1  c-1-1-1.9-1.6-2.6-2.9c0,0,0,0,0-0.1c-0.1,0-0.1-0.1,0-0.2c0.1-0.2,0.2-0.3,0.4-0.4c0,0-0.1,0-0.1,0c-1-0.8-1.8-2.4-2.1-3.6  c-0.2-0.8,0.2-1.2,0.8-1.4c-0.9-1-1.5-2.4-1.7-3.7c0,0,0-0.1,0.1-0.1c0,0,0-0.1,0-0.1c0.3-0.2,0.7-0.2,1-0.2  c-0.4-0.5-0.3-1.3-0.4-1.9c-0.1-0.8-0.2-1.6-0.1-2.5c0-0.1,0.2-0.2,0.3-0.1c0.4-0.3,0.9-0.3,1.3-0.3c0.2,0,0.4,0,0.7,0  c-0.1-0.4-0.1-0.9-0.1-1.2c0-1,0.1-2,0-3c0-0.1,0.1-0.2,0.2-0.1c0.5-0.2,1.2-0.2,1.9-0.1c-0.1-0.5-0.1-1.2-0.1-1.6  c0-0.7,0.1-1.4,0.5-1.9c0,0,0,0,0,0c0-0.1,0.1-0.2,0.2-0.1c0.3,0.1,1.3,0,1.8,0.2c-0.2-0.9,0.1-2,0.3-2.9c0,0,0.1-0.1,0.1,0  c0,0,0.1-0.1,0.1-0.1c0.4,0,0.8,0,1.2,0.2c0.3,0.1,0.6,0.2,0.9,0.4c-0.2-0.5-0.2-1-0.2-1.5c0.1-0.7,0.5-1,0.8-1.5c0,0,0,0,0-0.1  c0-0.1,0.1-0.1,0.1-0.2c0,0,0,0,0,0c0,0,0,0,0,0c0.3-0.4,0.6-0.5,1.3-0.5c0.4,0.1,1,0.2,1.4,0.6c-0.1-0.7,0.5-1.5,0.9-2  c0,0,0.1,0,0.1,0c-0.4,0.7-0.5,1.4-0.3,2.1c0,0.2-0.2,0.4-0.4,0.3c0,0.1-0.1,0.1-0.2,0.1c-0.7-0.5-1.9-1.3-2.7-0.5  c1.2,2.6,2,5.2,3.5,7.7c1.2,2,2.8,3.8,4.3,5.5c0.1,0.1,0.2,0.1,0.3,0.2c0.3-1.4,0.6-2.7,0.8-4.1c0-0.1,0-0.1,0-0.2  c-2-1.5-3.1-3.3-3.8-5.4c0.7,1.8,1.9,3.4,3.4,4.6c0.1,0,0.1,0.1,0.2,0.1c0.1,0,0.2,0.1,0.3,0.1c0.1-0.7,0.2-1.5,0.2-2.2  c-1.1-1.2-2-2.2-2.5-3.8c-0.7-2-0.4-4-0.9-6c0,0,0-0.1,0.1,0C51,8.5,50.8,10,51,11.2c0.4,2.1,1.2,3.6,2.4,5c0.2,0.1,0.4,0.2,0.5,0.3  c0.1-3.2-0.1-6.3,0-9.5c0,0,0-0.1,0-0.1c0,0,0,0,0,0c0,0,0,0,0,0c0,0,0,0-0.1,0c-0.2-0.1-0.5-0.3-0.7-0.4c0,0,0,0,0-0.1c0,0,0,0,0,0  c0,0,0-0.1,0.1,0c0,0,0,0,0,0c0.3,0.1,0.5,0.2,0.7,0.4c0,0,0,0,0,0c0,0,0,0,0,0c0,0,0,0,0,0c0,0,0,0,0.1,0c0.2-0.3,0.5-0.6,0.9-0.5  c0.1,0,0.2,0,0.2,0c0.3,0.2,0.5,0.5,0.6,0.8c0,0.1,0,0.1,0,0.2c0.1-0.1,0.2-0.1,0.3-0.2c0,0,0,0,0,0c0.7-0.5,1.5,0.6,1.3,1.4  c0.6-0.1,1-0.2,1.6,0c0.1,0,0.1,0.1,0.1,0.2c0.5,0.6,1,1.2,1,2c0,0,0,0.1,0,0.1c0.3-0.1,0.7,0,1,0.1c0,0,0.1,0,0.1,0l0,0  c0,0,0.1,0,0.1,0c0.1,0,0.1,0.1,0.1,0.2c0.6,0.7,1.7,2.3,1.1,3.2c0.4,0,0.8,0.1,1.2,0.2c0,0,0.1,0,0.1,0c1,0.7,1,1.9,1,3  c0,0.1-0.1,0.3-0.1,0.4c0.5,0,1-0.1,1.4,0.2c0,0,0,0,0.1,0c0.5,0.3,0.5,0.9,0.5,1.4c0,0.5,0.1,1.2-0.2,1.7c0.5,0.1,1,0.3,1.3,0.7  c0,0,0.1,0,0.1,0c0.2,0.5,0.4,1,0.4,1.5c0,0.5-0.2,1-0.3,1.5c0,0,0,0,0,0.1c0.2,0,0.4,0,0.6,0.1c0,0,0.1,0,0.1,0c0,0,0,0,0,0  c0,0,0.1,0,0.1,0.1c0.1,0.1,0.1,0.2,0,0.2c0.1,0.5,0.2,1,0.1,1.5c0,0.4-0.1,0.7-0.2,1c-0.1,0.5-0.1,0.7-0.5,1c0,0,0,0-0.1,0  c0.4,0.4,1,0.6,1.3,1c0,0,0.1,0,0.1,0.1c0.2,1.4-0.6,2.8-1.5,3.8c-0.2,0.2-0.3,0.2-0.4,0.3c0.3,0.4,0.5,0.7,0.6,1.2c0,0,0,0,0,0  c0.2,0.6-0.2,1.2-0.5,1.7c-0.3,0.5-0.9,1.6-1.6,1.6c0.1,0.4,0.3,0.8,0.1,1.1c0,0,0,0-0.1,0c-0.2,0.4-0.6,0.8-0.9,1.1  c-0.4,0.4-0.8,1-1.4,1.1c-0.1,0.7,0.2,1.1-0.2,1.7c-0.7,1.2-2.5,2-3.5,2.8c-2.2,1.7-4.3,3.8-6,6.2c-0.4,0.7-0.9,1.4-1.3,2.1  c-0.4,0.7-0.8,1.5-1.2,2.2c0.1,0.9,0.1,1.9-0.1,2.8c0.3-0.2,0.6-0.4,0.9-0.6c0.1,0,0.1-0.1,0.2-0.2c0,0,0.1,0,0.1-0.1  c0.7-1.9,3-3.4,4.3-4.7c3-2.8,5.5-6.4,7.6-10c0-0.1,0-0.2,0-0.2c0.1-0.2,0.4-0.1,0.6,0c0.2,0.2,0.4,0.4,0.5,0.6  c0.2-0.9,0.4-2,1.4-2.1c0.1,0,0.1,0.1,0.1,0.1c0,0,0,0,0,0c0,0,0,0,0,0c0,0,0-0.1,0.1-0.1c0.2,0.1,0.4,0.2,0.5,0.4  c0.1,0,0.1,0.1,0.1,0.1c0.1-0.5,0.5-1,0.8-1.5c0.3-0.4,0.9-1,1.4-1.2c0.1-0.1,0.2-0.2,0.3-0.2c0.6-0.1,1.2,0.4,1.5,1c0,0,0,0,0,0  c0.7-0.9,1.6-1.5,2.7-2c0-0.2,0.2-0.4,0.4-0.3c0.6,0.2,1,0.8,1.4,1.2c0,0,0,0.1,0,0.1c0.9-0.6,1.9-1.1,3-1.4c0.1,0,0.1,0,0.1,0  c0.6,0.4,1.3,0.9,1.2,1.7c0,0,0,0,0,0.1c0.8-0.2,1.5-0.4,2.2-0.7c0,0,0.1,0,0.1,0.1c0,0.1,0,0.1,0,0.2c0.3,0.2,0.5,0.4,0.6,0.7  c0.2,0.4,0.3,0.8,0.3,1.2c0.7-0.3,1.5-0.6,2.2-0.4c0,0,0,0,0,0c0,0,0,0,0,0c0-0.1,0.1-0.1,0.2,0c0,0.1,0,0.1,0,0.2c0,0,0,0,0,0  c0.2,0.2,0.4,0.6,0.5,0.9c0.1,0.2,0.1,0.3,0.2,0.5c0.1,0.2,0.1,0.3,0.1,0.5c0.6-0.1,1.3,0.1,1.8,0.2c0,0,0.1,0,0.1,0c0,0,0,0,0,0  c0,0,0.1,0,0.1,0c0.1,0,0.1,0.1,0.1,0.1c0.3,0.3,0.5,0.9,0.4,1.4c0.5,0,0.9,0,1.4,0.1c0.1-0.1,0.2-0.1,0.3-0.1c0,0,0,0,0,0  c0.5,0.4,0.3,1.4,0,1.9c0,0,0,0,0,0c0.5,0.1,1,0.2,1.4,0.5c0,0,0.1,0.1,0.1,0.1c0,0,0.1,0,0.1,0c0.7-0.2,0.8,0.8,0.3,1.1  c0.1,0.3,0.1,0.7-0.1,0.9c0.1,0,0.2,0,0.3,0.1c0.1,0,0.1,0.1,0.1,0.2C93.3,50.6,93,51,93,51.4z M34.5,37.8c0.4,7.3,4.9,14.3,10,19.5  c0.3,0.1,0.6,0.2,0.8,0.3c1,0.3,1.9,0.5,2.6,0.8c-0.1-0.1-0.2-0.3-0.3-0.4c-0.7-0.7-1.5-1.5-2.2-2.2c-0.7-0.8-1.3-1.5-1.9-2.2  c-0.4-0.4-0.8-0.8-1.1-1.3c-1-1.4-1.8-2.9-2.3-4.5c-0.2-0.5-1.2-5.8-2.7-6.1c-0.5,0.6-1.6,0.5-1.3-0.6c0-0.1,0-0.2,0-0.3  c-0.2-0.5-0.3-1.1-0.6-1.6c0,0,0,0,0-0.1c-0.2-0.3-0.5-0.7-0.7-1c0,0,0-0.1,0-0.1c0,0,0,0-0.1-0.1C34.7,37.8,34.6,37.8,34.5,37.8z   M15,34.9C15,34.9,15,34.9,15,34.9C15,34.9,15,34.9,15,34.9C15,34.9,15,34.9,15,34.9z M20.4,45.2c1.7,0.8,3.4,1.6,5.1,2.5  c0,0,0-0.1,0-0.1c-0.1-0.2-0.1-0.3-0.2-0.4c-1.8-2-3.4-4.2-5-6.4c-1.1-1.5-2.2-3-3.1-4.7c-0.5-0.9-0.7-2.1-1.3-2.9c0,0,0-0.1,0,0  c0.6,0.5,0.8,1.7,1.1,2.4c0.9,1.6,2,3.1,3,4.6c1.7,2.4,3.6,4.5,5.5,6.8c0.1,0.1,0.3,0.3,0.4,0.5c0.3,0.3,0.5,0.6,0.8,1  c0.2,0.1,0.3,0.2,0.5,0.2c2,1,3.9,2.1,5.9,3.2c-0.1-0.2-0.1-0.3-0.2-0.4c-0.1-0.2-0.2-0.4-0.3-0.5c-2.4-2.7-4.7-5.4-6.7-8.4  c-0.1-0.1-0.2-0.2-0.2-0.3c2.2,3,4.9,5.8,7.2,8.5c0.2,0.2,0.4,0.4,0.5,0.6c0.1,0.1,0.3,0.3,0.4,0.5c0.2,0.2,0.4,0.5,0.6,0.7  c0.7,0.4,1.4,0.7,2.2,1c-0.1-0.1-0.1-0.2-0.2-0.3c-0.2-0.2-0.3-0.5-0.5-0.7c-4.8-5.2-7.7-12.8-9.9-19.2c0-0.1,0.1-0.1,0.1-0.1  c2.9,7.5,6.1,15.2,11.9,20.9c0.5,0.2,1,0.5,1.5,0.7c0-0.1-0.1-0.2-0.1-0.3c-0.2-0.3-0.4-0.5-0.6-0.8c-4.3-5-6.2-13.1-8.2-18.9  c0,0,0.1-0.1,0.1-0.1c2.3,6.1,4.2,14,8.8,19.1c0,0,0,0,0,0c0,0,0,0,0,0c0.6,0.7,1.2,1.3,1.9,1.8c0.6,0.3,1.2,0.6,1.8,0.9  c-0.1-0.2-0.1-0.4-0.2-0.6c-0.1-0.2-0.2-0.4-0.4-0.5c-4.3-4.8-7.8-11.7-7.9-17.8c-0.2,0-0.5,0.1-0.8,0.2c-0.2,0.5-0.9,0.8-1.1,0.2  c-0.1-0.2-0.1-0.4-0.1-0.7c-0.1-0.3-0.2-0.5-0.3-0.7c-0.1-0.2-0.2-0.5-0.3-0.7c-0.1-0.2-0.3-0.3-0.4-0.5c0,0,0-0.1,0-0.1  c-0.4-0.4-0.9-1-1.5-0.8c-0.2,0.1-0.5,0.2-0.7,0.4c0,0.5-0.8,1.1-1.1,0.5c-0.3-0.5-0.4-1-0.9-1.5c-0.2-0.2-0.5-0.4-0.7-0.6  c-0.2-0.2-0.4-0.3-0.6-0.4c-0.1,0-0.1-0.1,0-0.2c-0.4-0.1-0.8,0-1.1,0.3c-0.1,0.1-0.2,0.2-0.3,0.3c0.1,0.4-0.2,0.7-0.6,0.8  c0,0,0,0,0,0c0,0.1-0.1,0-0.1,0c-0.2,0-0.3-0.1-0.4-0.3c0-0.1-0.1-0.1-0.1-0.2c-0.5-0.5-0.9-0.8-1.6-1.2c-0.5-0.3-0.8-0.6-1.3-0.1  c-0.3,0.3-0.5,0.7-0.6,1.1c0,0,0,0,0,0c0,0,0,0,0,0c0,0.1-0.1,0.3-0.1,0.4c0,0.1-0.2,0.2-0.2,0c0,0,0,0,0-0.1c0,0.1-0.2,0.2-0.3,0.1  c-0.7-0.7-1.5-0.9-2.5-1.2c-0.4,0-0.8-0.1-1.1-0.2c-0.3,0-0.4,0.2-0.6,0.6c-0.2,0.5-0.2,1-0.4,1.5c0,0,0,0,0,0  c0,0.1-0.1,0.3-0.2,0.2c0,0,0,0-0.1,0c-0.1,0-0.2,0-0.3,0c-0.6-0.4-1-0.7-1.8-0.8c-0.1,0-0.2,0-0.2,0c-0.5,0-1,0.1-1.5,0.2  c0,0.1-0.1,0.1-0.1,0.2c0.8,0.3,1.1,1,1.5,1.7c0.7,1.2,1.4,2.2,2.3,3.3C16.5,41.6,18.4,43.4,20.4,45.2z M5.8,43.4  c1.5-0.1,3,0.3,4.6,0.1c0.9-0.1,1.8-0.4,2.7-0.5c0.1-0.1,0.2-0.1,0.4-0.2c-0.3-0.2-0.6-0.3-1-0.5c-1.5-0.8-4.6-3.3-6.4-3.1  c0,0,0,0,0,0c-0.2,0.7-0.3,1.4,0,1.9c0.4-0.1,0.9,0.3,0.5,0.8c-0.2,0.3-0.4,0.5-0.6,0.8c0,0,0,0-0.1,0.1C5.9,43,5.9,43.2,5.8,43.4z   M6.3,46.3c3.8,0.6,8.5,0.7,12.4-0.2c0.1,0,0.2-0.1,0.3-0.1c0.1,0,0.3-0.1,0.4-0.2c-1.8-0.9-3.5-1.8-5.3-2.7  c-1.4,0.2-2.8,0.5-4.3,0.6c-1.4,0.1-2.7-0.1-4.1-0.2c0,0.2-0.1,0.3-0.1,0.3c0.2,0.4,0.6,0.7,1,0.8c0.2-0.1,0.4-0.1,0.4,0.1  c0.1,0.3-0.1,0.6-0.3,0.9c-0.1,0.2-0.3,0.3-0.4,0.5c0,0-0.1,0.1-0.1,0.1C6.3,46.2,6.3,46.3,6.3,46.3z M7.8,47.5  C7.9,47.5,7.9,47.5,7.8,47.5c0.1,0.1,0.1,0.1,0.1,0.1c0.1,0,0,0.1,0,0.2c0,0,0,0.1,0,0.1c-0.1,0.4-0.3,0.8-0.4,1.1  c3-0.1,5.9,0.7,8.9,0.9c2.8,0.2,5.5-0.1,8.2-0.4c0.2-0.1,0.3-0.1,0.5-0.2c0.1-0.1,0.2-0.1,0.4-0.2c-1.8-1-3.6-1.9-5.3-2.8  c-0.4,0.2-1,0.2-1.5,0.2c-1.4,0.3-3,0.3-4.4,0.4c-2.6,0.1-5.4,0.1-7.9-0.4C6.5,46.9,7.3,47.2,7.8,47.5z M21.3,66.2  c4-1.3,8.7-0.3,13-1.5c3.5-1,6.2-2.9,9.1-4.8c0.3-0.3,0.5-0.5,0.8-0.8c0.1-0.1,0.3-0.3,0.4-0.5c-0.3-0.2-0.6-0.3-1-0.5  c-0.3,0.2-0.8,0.3-1.1,0.5c-0.2,0.1-0.5,0.2-0.8,0.3c-2.5,1-5,2-7.7,2.5c-1.4,0.3-2.9,0.4-4.5,0.3c4.5-0.4,8.4-2,12.5-3.4  c0.1-0.1,0.3-0.1,0.4-0.2c0.2-0.1,0.4-0.2,0.6-0.3c-1.4-0.6-2.8-1.2-3.9-1.8c-0.6-0.3-1.1-0.6-1.7-0.9c-2.8,1.1-5.6,1.9-8.6,2.3  c-1.6,0.2-3.3,0.2-5.1,0.1c4.1-0.2,8-1,12-2.2c0.3-0.2,0.6-0.4,1-0.6c0,0,0,0,0,0c-1.3-0.7-2.6-1.3-4-2c-3.9,1.4-8.6,1.9-12.7,1.7  c-3.5-0.2-6.9-1.6-10.4-1.5c-0.1,0,0-0.1,0-0.1c3.8-0.3,7.5,1.3,11.4,1.3c3.4,0,6.8-0.4,10-1.3c0.2-0.1,0.5-0.3,0.7-0.4  c0.1,0,0.2-0.1,0.2-0.2c-1.9-0.9-3.7-1.9-5.5-2.9c-2.8,0.6-5.7,0.8-8.6,0.7C14.4,50.1,11,48.8,7.5,49c0,0,0,0-0.1,0.1  c0,0.2,0,0.4,0.2,0.6c0.4,0.5,1.5,0.8,2.2,0.9c0.2-0.1,0.6-0.1,0.5,0.2c-0.1,0.3-0.2,0.6-0.4,0.9c-0.2,0.2-0.4,0.5-0.6,0.8  c-0.1,0.6,0.5,0.9,1,1.3c0.9,0.7,2,1,3,1.5c0,0,0,0,0,0c0.2,0,0.3,0.2,0.3,0.4c-0.1,1-0.9,1.7-0.8,2.7c0.1,0.1,0.1,0.2,0.2,0.3  c1.1-0.5,2.2-0.7,3.3-0.9c-1.1,0.2-2.2,0.4-3.3,0.9c0.5,0.6,1.5,0.9,2.1,1.1c0.6,0.2,1.3,0.2,2,0.3c0.4-0.2,0.8,0,0.6,0.5  c-0.3,0.5-0.5,1.1-0.7,1.7c0,0.1,0,0.2,0.1,0.2c1.5-0.7,3.3-0.9,5-0.9c-1.8,0.1-3.5,0.3-5,1c0.1,0.2,0.3,0.3,0.5,0.5  c0.5,0.3,1.1,0.5,1.7,0.6c0.6,0.2,1.1,0.1,1.7,0.1c0.3-0.3,1-0.2,0.9,0.3c-0.1,0.3-0.3,0.6-0.4,1c-0.1,0.2-0.1,0.4-0.3,0.6  c0,0,0,0,0,0C21.2,65.9,21.2,66,21.3,66.2z M48.2,60.8c-0.6-0.5-1.2-0.9-1.8-1.3c-2,1.8-3.6,3.9-6,5.3c-3.8,2.2-8.3,2.8-11.7,5.8  c0,0,0,0,0,0c2.6-2.4,5.8-3.3,9-4.6c2.3-1,4.2-2.4,6.1-4.1c0.8-0.8,1.5-1.7,2.3-2.5c-0.2-0.1-0.5-0.3-0.7-0.4  c-3.2,2-5.9,4.2-9.6,5.4c-4.8,1.6-9.8,0.5-14.5,1.8c0.1,0.1,0.2,0.2,0.4,0.4c0.4,0.3,0.8,0.6,1.3,0.8c0.4,0.2,0.8,0.2,1.2,0.3  c0.3-0.2,0.9-0.1,0.6,0.5c-0.1,0.1-0.2,0.3-0.3,0.4c0,0,0,0.1,0,0.1c0,0.4,0.2,0.5,0.5,0.6c0.5,0.2,1,0.3,1.5,0.3c0.3,0,0.6,0,0.8,0  c0,0,0.1-0.1,0.1-0.1c0.1-0.1,0.2-0.2,0.3-0.2c0.1,0,0.1,0,0.2,0c0.1,0,0.2,0.1,0.3,0.2c0.1,0.2,0.1,0.4,0.1,0.7  c0.1,0.2,0.2,0.4,0.2,0.6c0,0,0,0,0,0c0,0.1,0.1,0.1,0.2,0.2c0.1,0.1,0,0.2-0.1,0.2c1.9,0.2,3.3-0.5,4.9-1.3  c0.1-0.7,1.3-0.8,1.2,0.1c0,0.3-0.2,0.6-0.2,0.8c0.6,0.3,2-0.3,2.4-0.5c1.2-0.5,2.1-1.1,3-2c0-0.1,0.1-0.2,0.1-0.3  c0.1-0.1,0.2-0.3,0.4-0.2c0.2,0.1,0.4,0.3,0.4,0.6c0,0.1,0,0.2,0,0.3c0.5,0,1.4-0.7,2.2-1.4c0,0,0,0,0-0.1c0.8-1,1.9-2,2.9-3  c0.3-0.4,0.6-0.7,0.9-1.1c0.2-0.4,0.5-0.8,0.8-1.1c0,0,0,0,0.1,0C47.9,61.4,48.1,61.1,48.2,60.8z M59.1,9c-1,2.8-2.6,5.7-4.3,8.1  c0,0.7-0.1,1.4-0.2,2.1c0,0.2-0.1,0.3-0.1,0.5c0.2-0.2,0.5-0.3,0.7-0.4c1.2-0.9,2.3-1.8,3.2-3c0.7-1,1.3-2,1.9-3.1  c0.3-0.6,0.8-1.4,0.8-2.1c-0.4-0.1-0.8-0.2-1.2,0c-0.1,0.1-0.2-0.1-0.2-0.2c0,0-0.1,0-0.1-0.1C59.8,10.1,59.5,9.6,59.1,9  C59.2,9,59.2,9,59.1,9z M56.2,7.5c-0.2,0-0.2-0.1-0.2-0.2c-0.1,0-0.2,0.1-0.3,0.1c0,0,0,0,0,0c0,0,0,0,0,0c0,0,0,0,0,0c0,0,0,0,0,0  c0,0,0,0,0,0c-0.1,0.1-0.3,0.1-0.4-0.1c0,0,0-0.1-0.1-0.1C55.1,7.2,55,7,54.9,6.9C54.7,7,54.5,7,54.2,7.1c0.3,3.3,0.7,6.2,0.6,9.4  c0.1-0.1,0.2-0.2,0.3-0.2c1.5-2.3,3-4.6,4-7.2c0,0,0,0,0,0c-0.1,0-0.1,0-0.2-0.1c-0.5-0.2-0.9,0-1.3,0.1c-0.2,0.1-0.4-0.2-0.3-0.4  c0-0.3-0.1-0.6-0.3-0.9C56.8,7.5,56.6,7.4,56.2,7.5z M53.4,25.4c0.3-0.2,0.6-0.3,0.9-0.4c1.6-0.9,3.1-2.1,4.5-3.5  c1.9-1.9,4.2-4,4.9-6.7c-0.4-0.2-1-0.3-1.4-0.1c-0.1,0-0.1,0-0.1,0c-0.1,0-0.2,0-0.2-0.1c-0.1-0.2-0.1-0.4,0-0.7c0-0.3,0-0.5,0-0.8  c0-0.7-0.2-1.3-0.6-1.9c0.1,1.4-1.5,3.5-2.2,4.6c-1,1.5-2.4,2.9-3.9,3.9c-0.2,0.2-0.4,0.4-0.7,0.4c0,0,0,0,0,0  C54.2,21.9,53.8,23.7,53.4,25.4z M51.9,31.8c0.1,0,0.1-0.1,0.2-0.1c0,0,0,0,0.1,0c2.7-1.4,5-3.4,7.2-5.5c2.5-2.3,5.1-4.9,6.7-7.9  c-0.3-0.3-1-0.1-1.5-0.2c0,0,0,0,0,0c0,0-0.1,0-0.1,0c-0.2,0.1-0.4,0-0.5-0.1c0,0,0,0,0,0c-0.1-0.2-0.1-0.4,0-0.6  c0.5-0.8,0.3-1.9-0.2-2.7c0,0,0,0,0,0c-0.6,2.3-2.2,4-3.8,5.7c-1.7,1.8-3.5,3.7-5.6,4.8c-0.1,0.1-0.2,0.2-0.4,0.3  c-0.2,0.2-0.5,0.4-0.7,0.6C52.7,28.1,52.3,30,51.9,31.8z M41.6,13.5C41.6,13.5,41.6,13.5,41.6,13.5c1.9,2.1,2.3,5.3,3.5,7.7  c1.2,2.6,3.3,6.1,5.9,7.7c0.2,0.1,0.4,0.2,0.6,0.3c0.4-1.5,0.7-3,1.1-4.5c-0.1-0.1-0.3-0.2-0.4-0.4c-1.7-1.8-3.4-3.9-4.5-6.1  c-1.3-2.5-2.2-4.9-3.2-7.4c0,0,0,0-0.1,0.1c0,1-0.5,1.9-0.1,2.9c0.2,0.3-0.4,0.7-0.6,0.5c0,0,0,0,0,0c-0.4,0-0.7-0.2-1.1-0.4  C42.4,13.7,42,13.6,41.6,13.5C41.6,13.5,41.6,13.5,41.6,13.5z M39.4,16.4c1.9,5.8,5.3,11.6,10.6,15c0.2,0.1,0.4,0.1,0.6,0.2  c0.1,0.1,0.3,0.1,0.4,0.2c0.2-0.7,0.3-1.3,0.5-2c-0.3-0.1-0.5-0.3-0.7-0.6c-2.3-1.5-4.1-4.6-5.3-6.9c-1.4-2.8-1.8-6.3-3.8-8.7  c0,0.4,0,0.8,0.1,1.2c0,0.5,0.2,1,0.4,1.5c0.1,0.3-0.3,0.6-0.5,0.6c0,0,0,0,0,0c-0.3,0-0.7-0.2-1-0.3C40.1,16.5,39.7,16.5,39.4,16.4  z M49.7,55.4c-0.1-1.3-0.1-2.6-0.2-3.8c-0.1-0.3-0.2-0.6-0.4-1c-0.1-0.2-0.2-0.5-0.3-0.7c-1.7-3.6-4.5-7.1-7-9.5  c-0.8-0.7-1.5-1.4-2.2-2.1c2.1,1.8,4.2,3.5,5.8,5.7c1.2,1.6,2.5,3.5,3.5,5.4c0.1,0.2,0.3,0.4,0.4,0.5c0.1,0.1,0.1,0.1,0.2,0.2  c-0.1-2.1-0.1-4.2,0-6.4c-0.1-0.1-0.1-0.3-0.2-0.4c-0.2-0.2-0.4-0.6-0.5-0.9c-2.1-3.3-5.3-6.1-7.9-8.7c-2.6-2.6-4.1-5.6-5.9-8.8  c0,0.8,0.1,1.5,0.4,2.2c0.3,0.6,0.7,1.1,0.7,1.8c0,0.3-0.4,0.6-0.7,0.4c0,0,0,0,0,0c0,0,0,0-0.1,0c-0.3,0-0.7,0.1-1,0.1  c0.3,0.6,0.4,1.2,0.7,1.8c0.3,0.7,0.6,1.3,1,1.8c0,0,0,0,0.1,0c0.4,0,0.3,0.6-0.1,0.6c-0.3,0-0.4,0.1-0.5,0.2c0.7,0.5,1.3,1.3,2,2.1  c-0.7-0.7-1.3-1.4-2-2c-0.2,0.4,0.2,1.1,0.4,1.6c0.3,0.9,0.7,1.7,1.4,2.3c0,0,0,0,0,0c0,0,0.1,0.1,0.1,0.1c0,0,0,0.1,0,0.1  c0,0,0,0,0,0c0.3-0.1,0.4,0.4,0.1,0.5c-0.2,0-0.3,0.1-0.4,0.2c0,0,0,0,0,0c4.4,4.5,7.5,9.8,11.1,14.9c0.1,0.1,0.2,0.2,0.2,0.3  c0.4,0.5,0.7,0.9,1.3,1.2C49.6,55.3,49.6,55.3,49.7,55.4z M49.8,38.5c-0.1-0.1-0.1-0.2-0.2-0.3c-0.1-0.1-0.2-0.3-0.3-0.4  c-3.9-6.1-8.1-12-12.4-17.7c0.1,0.8-0.1,1.7,0.1,2.5c0.1,0.3,0.2,0.8,0.4,1.1c0.1,0.3,0.3,0.5,0.4,0.9c0,0.2-0.2,0.5-0.4,0.3  c0,0-0.1-0.1-0.1-0.1c-0.4,0-0.7-0.1-1.1-0.1c-0.3,0-0.9,0-1.2,0.1c1.6,2.5,2.7,5.2,4.6,7.4c1.3,1.5,2.8,2.7,4.2,4.1  c1.7,1.7,3.7,3.7,5.1,5.8c0.2,0.1,0.3,0.3,0.5,0.4c0,0,0.1,0.1,0.1,0.1C49.5,41.3,49.6,39.9,49.8,38.5z M50,36.7  c0.2-1.5,0.5-3,0.9-4.4c-0.1,0-0.2-0.1-0.3-0.2c-0.1,0-0.1-0.1-0.2-0.1c-5.5-3.2-9.5-9.5-11.1-15.6c-0.1,0.7-0.2,1.4,0,2  c0.1,0.5,0.5,1.1,0.5,1.6c0,0.3-0.3,0.6-0.6,0.4c-0.1-0.1-0.2-0.2-0.3-0.3c-0.6-0.2-1.3-0.2-1.9-0.1c2.5,3.1,4.7,6,6.8,9.4  c1.7,2.7,3.9,5.3,5.7,8c0.1,0.1,0.2,0.3,0.4,0.4C49.9,37.5,49.9,37.1,50,36.7z M50.5,44.7c0.2-0.3,0.5-0.6,0.8-0.9  c1.3-1.9,2.9-3.6,4.8-5.2c4.7-4.2,9.3-7.3,12.3-13.1c0,0,0,0,0.1,0c-0.3-0.1-0.5-0.1-0.9,0c0,0-0.1,0-0.1,0c-0.1,0-0.2,0-0.3-0.1  c-0.3-0.3,0.1-0.7,0.4-0.8c0.3-0.1,0.4-0.8,0.4-1.1c0-0.4,0-0.7-0.1-1.1c0,0,0,0,0,0c0-0.1-0.1-0.2-0.2-0.2  c-1.3,2.9-3.5,4.9-5.9,6.8c2.3-2,4.4-4.1,5.8-6.9c0,0,0,0,0,0c-0.3-0.3-0.8-0.4-1.2-0.4c-0.3,0.2-0.6,0-0.6-0.4  c0.1-0.5,0.6-0.7,0.6-1.3c0-0.5-0.1-0.9-0.2-1.3c0,0,0,0,0,0c0,0,0,0,0,0c-1.5,2.8-3.8,5.1-6,7.4c-2,2.1-4.4,4.5-7.1,5.9  c-0.1,0.1-0.3,0.2-0.4,0.3c-0.3,0.2-0.6,0.5-0.9,0.6c0,0.1-0.1,0.2-0.1,0.4c-0.5,2.3-0.8,4.7-0.9,7.1c0.1-0.1,0.1-0.2,0.2-0.3  c2.2-4.3,6.1-7,9.8-10c-0.1,0.1-0.3,0.2-0.4,0.4c-3.6,3-6.7,5.6-8.9,9.5c-0.2,0.5-0.4,1-0.7,1.3C50.6,42.1,50.5,43.4,50.5,44.7z   M50.7,50c0.1-0.1,0.2-0.3,0.3-0.4c1.4-2.9,4.3-5.4,6.5-7.5c4.1-3.8,7.9-7.7,11.6-11.9c-0.4-0.5-1-0.7-1.4-1.1  c-0.3,0-0.4-0.3-0.3-0.6c0.3-0.6,0.9-0.9,1-1.6c0.1-0.5,0-1,0-1.5c0,0-0.1,0-0.1,0c0,0,0,0,0,0.1c-4.1,8.5-13.6,12.2-17.9,20.4  C50.6,47.2,50.6,48.6,50.7,50z M51,52.9c0.1-0.1,0.1-0.1,0.2-0.2c0.2-0.3,0.4-0.5,0.6-0.8c0,0,0,0,0,0c1.3-2,2.9-3.8,4.5-5.4  c2.6-2.6,5.9-6.1,9.6-6.9c0,0,0,0,0,0c0.1-0.3-0.1-0.6-0.2-0.9c-0.3-0.2-0.4-0.5-0.2-0.8c0.2-0.5,0.6-0.6,1.1-0.7  c0.7-0.2,1.2-0.8,1.4-1.5c0-0.5-0.4-0.9-0.7-1.3c0,0,0,0,0,0c-0.3-0.2-0.4-0.9,0.2-1.1c1.2-0.5,1.5-1.5,1.8-2.7  c-2.6,3-5.2,6-8.1,8.8c-3.5,3.3-8.8,7-10.3,12C50.9,51.8,50.9,52.3,51,52.9z M52.9,53.4c1-1.3,2-2.6,3.1-3.9  c1.1-1.3,2.2-2.5,3.5-3.6c1.4-1.2,3.3-1.9,3.8-3.9c-0.1-0.1-0.2-0.3-0.1-0.5c0.4-0.5,0.9-0.7,1.4-1.1c0.3-0.2,0.6-0.5,0.9-0.7  c-3,0.9-5.4,3.4-7.7,5.4c-2.7,2.4-5.2,5.4-6.9,8.7c0,0.2,0,0.4,0.1,0.6c0,0.3,0.1,0.6,0.1,0.9C51.8,54.7,52.4,54,52.9,53.4z   M88.7,50.5c0.2,0.1,0.5,0.2,0.8,0.2c1.2,0,2.2-0.2,3.3-0.5c0,0,0,0,0-0.1c0,0,0,0,0,0c-0.1,0-0.1,0-0.2,0c-0.1,0-0.1-0.2,0-0.2  c0.3-0.3,0.3-0.5,0.2-0.8C91.4,49.6,90.1,50,88.7,50.5z M90.8,45.9C90.8,45.9,90.8,45.9,90.8,45.9L90.8,45.9  C90.8,45.9,90.8,45.9,90.8,45.9z M90.3,47.2c0.1-0.3,0.2-0.5,0.3-0.8c0-0.1,0.1-0.3,0.1-0.4c-1.3,0.8-2.6,1.8-3.6,3  c0,0.1,0,0.1-0.1,0.2c0,0.1-0.1,0.3-0.1,0.4c1.8-0.5,3.6-1,5.4-1.5c-0.4-0.3-1-0.4-1.4-0.6C90.6,47.6,90.3,47.6,90.3,47.2z   M88.4,44.4c-2.1,1.7-4.3,3.5-5.7,5.8c0,0.2-0.1,0.4-0.1,0.5c1.3-0.4,2.6-0.7,3.9-1.1c0,0,0-0.1,0.1-0.1c0-0.2,0.2-0.3,0.3-0.5  c0.9-1.4,2.3-2.5,3.8-3.3c-0.4-0.1-0.9-0.1-1.3-0.1c-0.1,0.1-0.2,0.2-0.3,0.2c-0.4,0.1-0.5-0.3-0.5-0.6C88.5,45,88.4,44.7,88.4,44.4  z M85.8,42c-1.7,1.3-2.8,4-3.9,5.8c-0.7,1.2-1.4,2.4-2.3,3.5c0,0.1-0.1,0.2-0.2,0.4c0.9-0.2,1.8-0.5,2.7-0.8  c0.1-0.3,0.3-0.7,0.5-0.8c1.3-2.4,3.4-4.3,5.6-5.9c-0.2-0.1-0.5-0.1-0.7-0.1c-0.2,0-0.5-0.1-0.8,0c-0.2,0.6-1.3,0.6-1.1-0.2  c0.1-0.2,0.1-0.4,0.2-0.6c0-0.2,0-0.4,0-0.6C85.8,42.4,85.8,42.2,85.8,42C85.8,42,85.8,42,85.8,42z M82.4,40.4  c-1.9,2.2-3.2,4.9-4.6,7.5c-1,1.7-2.1,3.1-3.3,4.6c0,0,0,0,0,0.1c-0.1,0.2-0.1,0.3-0.2,0.5c1.6-0.4,3.1-0.8,4.7-1.2  c0.1-0.1,0.2-0.2,0.3-0.3c0,0,0,0,0.1-0.1c1.3-1.6,2.3-3.4,3.3-5.2c0.8-1.4,1.7-3.2,3-4.2c-0.7,0-1.3,0.1-2,0.4  c-0.1,0.3-0.7,0.8-0.9,0.3c-0.2-0.4-0.2-1-0.3-1.4C82.4,40.9,82.3,40.7,82.4,40.4z M79,39.3c-3.8,4.2-5.1,10.5-9.4,14.2  c-0.1,0.1-0.2,0.2-0.2,0.4c0,0.1-0.1,0.1-0.1,0.2c1.5-0.3,3-0.6,4.4-1c0.1-0.1,0.1-0.2,0.2-0.3c0-0.1,0.1-0.2,0.2-0.3  c1.4-2,2.9-3.9,4.1-6c1.2-2.1,2.3-4.3,4-6.1c-0.1,0-0.2,0.1-0.4,0.1c-0.6,0.2-1.1,0.3-1.7,0.4c-0.1,0.1-0.3,0.1-0.4,0.1c0,0,0,0,0,0  c-0.1,0-0.1,0-0.1-0.1c0,0,0,0,0,0c0-0.1-0.1-0.1-0.1-0.3c0-0.3,0-0.6-0.1-0.9C79.4,39.6,79.2,39.4,79,39.3z M74.6,39.6  c-2.4,2.2-3.8,5.8-5.4,8.6c-1.3,2.2-2.7,4.6-4.5,6.5c0,0-0.1,0.1-0.1,0.1c-0.1,0.1-0.1,0.2-0.2,0.3c1.2-0.3,2.4-0.6,3.6-0.8  c0,0,0,0,0,0c2.7-2.2,4.6-4.7,6.2-7.9c1.3-2.6,2.7-5.1,4.7-7.2c0,0,0,0,0,0c-1,0.3-1.9,0.8-2.8,1.4c0,0.1-0.1,0.2-0.1,0.3  c-0.2,0.2-0.3,0.3-0.6,0.3c-0.3,0-0.5-0.2-0.5-0.5c0-0.4,0-0.6-0.3-0.9C74.7,39.7,74.6,39.7,74.6,39.6z M61.4,55.7  c-0.1,0.1-0.1,0.3-0.2,0.4c0.8-0.3,1.6-0.5,2.5-0.7c0.2-0.1,0.3-0.3,0.5-0.4c0.1-0.2,0.2-0.3,0.4-0.4c2.2-2.4,3.8-5.5,5.4-8.2  c1.3-2.2,2.5-5,4.5-6.7c0-0.1-0.1-0.1-0.1-0.2c0,0,0,0,0,0c-0.6,0.4-1.4,0.7-2,1.2c-0.3,0.2-0.5,0.6-0.8,0.9c0,0.2-0.2,0.4-0.5,0.5  c0,0,0,0,0,0c0,0-0.1,0-0.2,0c-0.1,0-0.2-0.1-0.3-0.3c-0.1-0.4-0.4-0.7-0.7-0.9C67.3,45.5,65.4,51.8,61.4,55.7z M63.5,56.7  C63.5,56.7,63.5,56.7,63.5,56.7C63.5,56.7,63.5,56.7,63.5,56.7C63.5,56.7,63.5,56.7,63.5,56.7z M53.4,58.6c0.2-0.1,0.5-0.2,0.7-0.3  c0.2-0.1,0.4-0.2,0.6-0.2c0.6-0.2,1.2-0.4,1.8-0.5c4.2-3.7,8.5-9,9.9-14.4c0,0,0.1-0.1,0.1,0c-1.1,4.8-4.8,10.1-8.7,13.6  c-0.1,0.1-0.2,0.2-0.3,0.4c0,0.1-0.1,0.1-0.1,0.2c0.7-0.2,1.3-0.4,2-0.7c0,0,0.1,0,0.1,0c0.3-0.1,0.6-0.2,0.8-0.3  c4.4-4.3,6.3-10.5,9.7-15.6c0,0,0,0,0,0c0,0,0,0,0-0.1c-0.3,0.3-0.8,0.5-1.1,0.9c-0.5,0.5-1,1.2-1,2c0,0,0,0,0,0c0,0,0,0,0,0  c0,0.1-0.1,0.2-0.2,0.1c-0.1,0-0.2,0-0.2,0c-0.3-0.2-0.4-0.5-0.7-0.7c-1,0.2-0.9,1.7-1.3,2.5c0,0.1-0.1,0.1-0.2,0c0,0,0-0.1,0-0.1  c0,0,0,0-0.1,0c-0.3-0.1-0.6-0.5-0.7-0.8c-1.5,3-3.5,6.2-5.7,8.7c-1.5,1.7-3.3,3.1-4.8,4.7C53.8,58.2,53.6,58.4,53.4,58.6z   M58.2,58.2C58.2,58.3,58.2,58.3,58.2,58.2C58.2,58.3,58.2,58.3,58.2,58.2C58.3,58.3,58.3,58.3,58.2,58.2z M56,59C56,59,56,59,56,59  C56,59,56,59,56,59C56,59,56,59,56,59z M54.1,59.8C54.1,59.8,54.1,59.8,54.1,59.8C54.1,59.9,54.1,59.9,54.1,59.8  C54.2,59.8,54.1,59.8,54.1,59.8z M64.7,71.3c-1.8-3.8-5.3-9.7-9.7-11.1c-0.1,0-0.1,0-0.2-0.1c-0.1,0-0.2-0.1-0.4-0.1  c-0.2,0-0.3-0.1-0.5-0.1c0,0,0,0,0,0c0.9,0.3,1.4,1.7,2,2.8c0.4,0.9,0.8,1.9,1.3,2.8c0.4,0.7,0.9,1.3,1.4,2c0.7,0.7,1.7,1.6,2.4,2.1  c0-0.2,0-0.4,0.1-0.6c0-0.2-0.1-0.3-0.1-0.5c0-0.1,0.1-0.2,0.2-0.2c1,0.7,1.7,1.6,2.7,2.3c0,0,0.1,0.1,0.1,0.1c0,0,0.1,0,0.1,0.1  c0.2,0.1,0.3,0.2,0.5,0.3c0,0,0.1,0,0.1,0C64.6,71.2,64.7,71.2,64.7,71.3z M65.4,64.4c-2.9-2.1-6.3-4.6-9.9-5.3  c-0.4,0.1-0.7,0.3-1.1,0.4c0.5,0.2,1,0.3,1.4,0.7c4.2,1.6,7.4,7.5,9,11.1c0,0,0,0,0.1,0c0-0.4-0.1-0.7-0.3-1.1  c0-0.1,0.1-0.3,0.2-0.2c0.1,0,0.1,0.1,0.2,0.1c0.4-0.1,1,0.2,1.3,0.5c0.2,0.1,0.4,0.3,0.6,0.4c0.1,0,0.3,0.1,0.4,0.1  c0,0,1,0.2,1,0.2c0.1,0-0.1-1.1-0.1-1.1c0-0.1,0.1-0.3,0.2-0.2c0.5-0.3,1.2-0.1,1.7,0.2c0.5,0.2,1,0.4,1.4,0.5  c0.4,0.1,0.8,0.1,1.2,0.1c0,0,0,0,0-0.1C70.6,68.3,68,66.3,65.4,64.4z M77.1,69.7c-2.6-1.9-4.6-4.2-7.4-5.9  c-3.9-2.3-7.7-4.4-12.1-5.3c-0.5,0.1-0.9,0.3-1.4,0.5c0.1,0,0.1,0.1,0.2,0.1c2.6,0.4,5.1,2.3,7.1,3.7c3.3,2.2,6.5,4.7,9.3,7.5  c-0.2-0.4-0.2-0.9-0.3-1.3c-0.1-0.1-0.1-0.1-0.2-0.2c-0.2-0.3,0.2-0.7,0.5-0.6c1.2,0.8,2.8,1.1,4.2,1.4c0,0,0,0,0,0  C77,69.7,77.1,69.7,77.1,69.7z M80.7,67.3c-3.2-2.8-6.4-4.9-10.4-6.7c-3.3-1.5-6.7-1.8-10-2.9c-0.6,0.2-1.2,0.4-1.9,0.6  c0.1,0.1,0.2,0.1,0.4,0.2C66,59.8,71.6,65,77.1,69.6c-0.1-0.2-0.4-0.8-0.5-1c-0.1-0.4-0.2-0.8-0.3-1.2c-0.1-0.1-0.2-0.1-0.3-0.2  c-0.2-0.2,0.1-0.4,0.2-0.4c0.4-0.1,0.5,0,0.9,0.1c0.5,0.2,1,0.3,1.4,0.3c0.6,0,1.1,0.1,1.7,0.2C80.4,67.3,80.6,67.3,80.7,67.3z   M83.6,63.9c-6.9-2.4-13-6.4-20.4-7.2c-0.6,0.2-1.3,0.4-1.9,0.6c-0.1,0-0.1,0-0.2,0.1c0.3,0.1,0.6,0.2,0.9,0.3  c0.4,0.2,0.8,0.2,1.2,0.4c2.5,0.6,4.9,1.1,7.4,2.2c4,1.8,7.2,4,10.4,6.9c0-0.8-0.2-1.5-0.5-2.1c-0.1-0.1-0.1-0.2-0.2-0.3  c0,0,0,0,0,0c0,0,0-0.1-0.1-0.1c0,0,0-0.1,0-0.1c0-0.1-0.1-0.2-0.1-0.2c-0.1-0.1,0.1-0.3,0.2-0.2c0,0,0,0,0,0c0,0,0.1,0,0.1,0  c0,0,0.1,0,0.2-0.1c0.6,0,1.2,0,1.7,0c0.4,0,0.8,0,1.1-0.1C83.4,64,83.5,64,83.6,63.9z M85.5,61C85.5,61,85.5,61,85.5,61  c-5.1-1.1-9.9-3.6-14.9-4.7c-0.5-0.1-1-0.2-1.6-0.3c-0.7-0.1-1.3-0.1-1.9-0.2c-0.1,0-0.1,0-0.2,0c-0.9,0.2-1.7,0.4-2.6,0.6  c0.3,0.1,0.6,0.2,0.9,0.3c0.5,0.2,1,0.2,1.5,0.4c6,1.3,11.2,4.5,17,6.7c0.3-0.3,0.2-0.8,0.1-1.2c-0.4,0-0.2-0.6,0.1-0.7  c0.4-0.1,0.9,0,1.3,0.2c0.1,0,0.3,0,0.4,0.1C85.6,61.9,85.6,61.4,85.5,61z M87.9,58.7c0,0-0.1,0-0.1,0c-0.2-0.1-0.1-0.5,0.1-0.6  c0,0,0.1,0,0.1,0c-1.8-0.1-3.5-0.7-5.2-1.3c-1.8-0.6-3.6-1.2-5.4-1.5c-1-0.1-2.1-0.3-3.1-0.4c-0.4,0-0.8-0.1-1.2-0.2  c-0.4,0.1-0.8,0.2-1.2,0.2c-1.2,0.2-2.4,0.5-3.6,0.7c0.3,0,0.6,0.1,0.9,0.2c1.1,0.2,2.3,0.5,3.3,0.9c0,0,0,0,0,0  c4.3,1.1,8.5,3,12.8,4.1c-0.1-0.2,0.1-0.4,0.3-0.5C86,60,86.5,60.1,87,60c0.4,0,0.7-0.1,1.1-0.2C88.2,59.5,88.1,59.1,87.9,58.7z   M90,56.1c-0.1-0.1-0.2-0.2-0.1-0.3c0,0,0,0,0,0c0-0.1,0-0.2,0.1-0.2c0,0,0,0,0.1,0c-1.7,0.1-3.3-0.1-4.9-0.5c-1-0.1-2-0.5-3-0.7  c-1.3-0.3-2.7-0.5-4-0.8c-1.3,0.3-2.6,0.6-3.9,0.9c0.3,0,0.5,0,0.8,0.1c1.2,0.2,2.4,0.5,3.6,0.7c0,0,0,0,0,0  c0.4,0.1,0.8,0.2,1.3,0.3c3.1,0.8,5.9,2.2,9.1,2.4c0.5,0,0.9-0.2,1.2-0.6c0.1-0.1,0.2-0.1,0.2,0C90.3,56.9,90.1,56.4,90,56.1z   M91.4,53.6C91.4,53.6,91.3,53.6,91.4,53.6c-0.1-0.2-0.1-0.3-0.1-0.4c-2.2,0-4.3-0.5-6.5-0.8c-0.4,0-0.8-0.1-1.2-0.1  c-0.3,0-0.5,0-0.8-0.1c-1.3,0.4-2.7,0.7-4.1,1.1c2,0,4.1,1,6.1,1.5c1.8,0.3,3.6,0.5,5.4,0.4c0,0,0,0,0,0c0.1,0,0.1,0,0.2,0  c0.2-0.1,0.4-0.1,0.5-0.2c0.3-0.1,0.6-0.2,0.8-0.2C91.6,54.4,91.4,54,91.4,53.6z M92.9,50.3c-1.1,0.5-2.2,0.6-3.4,0.5  c-0.2,0-0.4,0-0.6,0c-0.4,0-0.7-0.1-1.1-0.1c-1.4,0.5-2.9,0.9-4.4,1.3c0,0,0.1,0,0.1,0c0.2,0.1,0.3,0.1,0.5,0.1  c2.4,0.2,4.8,0.6,7.2,0.9c0.1-0.2,0.2-0.3,0.4-0.5c0.3-0.3,0.5-0.4,0.6-0.8c0-0.1,0.1-0.2,0.2-0.2c0-0.1,0-0.1,0-0.2  C92.6,51,93,50.7,92.9,50.3z M49.4,13.7c0.1,0.3,0.2,0.6,0.3,0.9c-0.2-0.7-0.4-1.3-0.6-2C49.3,12.9,49.3,13.3,49.4,13.7z M39.6,38.2  c-0.7-0.7-1.5-1.5-2.2-2.2c0.5,0.6,1,1.2,1.6,1.7C39.2,37.9,39.4,38,39.6,38.2z M21,32.6c0.2,1.6,0.8,3.1,1.6,4.6  C21.9,35.7,21.4,34.2,21,32.6C21.1,32.5,21,32.5,21,32.6z M25.5,41.9c-1-1.5-2-3-2.9-4.7C23.4,38.8,24.4,40.4,25.5,41.9z M29.2,61.7  c0.1,0,0.2,0,0.4,0c-2.5,0-5.1-0.2-7.5-0.1C24.5,61.6,27,61.9,29.2,61.7z M21.5,57.7c0.8,0,1.5,0,2.2-0.1c-2.5-0.1-5-0.2-7.3,0.1  C18.1,57.5,19.8,57.7,21.5,57.7z"></path></g>
</svg>
</g><g opacity="1" transform="rotate(0 693.0243 637.9811)">
<svg width="347.9244" height="60" x="693.0243" y="637.9811" version="1.1" preserveAspectRatio="none" viewBox="1.8 -25.44 147.52 25.44">
  <g transform="matrix(1 0 0 1 0 0)" class="companyName"><path id="id-D6z1nYkh9" d="M8.48-9.52L7.48-9.52L7.48 0L1.80 0L1.80-25.44L12.28-25.44Q17.32-25.44 17.32-21.04L17.32-21.04L17.32-13.92Q17.32-10.40 14.12-9.68L14.12-9.68L18.60 0L12.48 0L8.48-9.52ZM10.56-21.24L7.48-21.24L7.48-13.56L10.56-13.56Q11.12-13.56 11.36-13.78Q11.60-14 11.60-14.52L11.60-14.52L11.60-20.24Q11.60-21.24 10.56-21.24L10.56-21.24Z M21.48 0L21.48-25.44L27.16-25.44L27.16 0L21.48 0Z M49.64-15.76L49.64-15.76L49.64-20.52Q49.64-21.52 48.56-21.52L48.56-21.52L45.28-21.52L45.28-14.76L48.56-14.76Q49.64-14.76 49.64-15.76ZM49.64-4.92L49.64-4.92L49.64-9.88Q49.64-10.40 49.40-10.62Q49.16-10.84 48.56-10.84L48.56-10.84L45.28-10.84L45.28-3.92L48.56-3.92Q49.64-3.92 49.64-4.92ZM39.64 0L39.64-25.44L50.20-25.44Q55.28-25.44 55.28-21.04L55.28-21.04L55.28-16.56Q55.28-13.60 53.48-12.84L53.48-12.84Q55.28-12.16 55.28-9.40L55.28-9.40L55.28-4.44Q55.28 0 50.20 0L50.20 0L39.64 0Z M65.20-10.84L65.20-4.20L73.36-4.20L73.36 0L59.48 0L59.48-25.44L73.04-25.44L73.04-21.24L65.20-21.24L65.20-15.04L71.88-15.04L71.88-10.84L65.20-10.84Z M94.00 0L88.24 0L87.36-4.60L81.56-4.60L80.68 0L75.04 0L80.80-25.44L88.08-25.44L94.00 0ZM84.44-19.52L82.36-8.76L86.52-8.76L84.44-19.52Z M106.48-5.20L106.48-25.44L112.20-25.44L112.20-4.44Q112.20 0 107.12 0L107.12 0L101.76 0Q96.72 0 96.72-4.44L96.72-4.44L96.72-25.44L102.44-25.44L102.44-5.20Q102.44-4.20 103.48-4.20L103.48-4.20L105.40-4.20Q106.48-4.20 106.48-5.20L106.48-5.20Z M114.96-25.44L130-25.44L130-21.24L125.32-21.24L125.32 0L119.60 0L119.60-21.24L114.96-21.24L114.96-25.44Z M143.20-8.20L143.20 0L137.48 0L137.48-8.24L131.08-25.44L136.92-25.44L140.32-13.48L143.48-25.44L149.32-25.44L143.20-8.20Z"/></g>
</svg>
</g></svg></svg>